<svg width="100" height="56" viewBox="0 0 100 56" fill="none" xmlns="http://www.w3.org/2000/svg">
<rect opacity="0.7" width="100" height="56" rx="5" fill="#A5B4FC"/>
<path d="M64.1491 18.7511V33.7043C64.1491 33.9412 63.9746 34.1188 63.742 34.1188H60.7464C60.5137 34.1188 60.3392 33.9412 60.3392 33.7043V18.7511C60.3392 18.5143 60.5137 18.3366 60.7464 18.3366H63.742C63.9746 18.3366 64.1491 18.5143 64.1491 18.7511ZM87.5323 18.3366H84.1877C84.0132 18.3366 83.8678 18.455 83.8096 18.6327L81.163 27.4862L78.2546 18.6327C78.1965 18.455 78.0511 18.3662 77.8766 18.3662H75.5208C75.3463 18.3662 75.2009 18.4846 75.1427 18.6327L72.2344 27.4862L69.5296 18.6327C69.4714 18.455 69.326 18.3366 69.1515 18.3366H65.8069C65.6906 18.3366 65.5451 18.3958 65.487 18.5143C65.3997 18.6327 65.3997 18.7511 65.4288 18.8696L70.373 33.8524C70.4312 34.03 70.5766 34.1188 70.7511 34.1188H73.4268C73.6013 34.1188 73.7467 34.0004 73.8049 33.8524L76.6841 25.1173L79.5634 33.8524C79.6216 34.03 79.767 34.1188 79.9415 34.1188H82.6172C82.7917 34.1188 82.9371 34.0004 82.9953 33.8524L87.9395 18.8696C87.9685 18.7511 87.9685 18.6031 87.8813 18.5143C87.794 18.3958 87.6777 18.3366 87.5323 18.3366ZM92.5928 18.3366H89.5972C89.3646 18.3366 89.1901 18.5143 89.1901 18.7511V33.7043C89.1901 33.9412 89.3646 34.1188 89.5972 34.1188H92.5928C92.8255 34.1188 93 33.9412 93 33.7043V18.7511C93 18.5143 92.7964 18.3366 92.5928 18.3366ZM58.6233 33.6155C58.7978 33.8227 58.6523 34.1188 58.3906 34.1188H54.697C54.5516 34.1188 54.4062 34.0596 54.3189 33.9412L53.7081 33.1713C52.4285 34.0004 50.9161 34.5038 49.3165 34.5038C44.8377 34.5038 41.2022 30.8025 41.2022 26.2425C41.2022 21.6825 44.8377 17.9813 49.3165 17.9813C53.7954 17.9813 57.4308 21.6825 57.4308 26.2425C57.4308 27.8711 56.9655 29.4108 56.1512 30.7137L58.6233 33.6155ZM51.3233 30.2695L49.7237 28.2856C49.5492 28.0784 49.6946 27.7526 49.9564 27.7526H53.3301C53.5046 27.2789 53.5918 26.7459 53.5918 26.2129C53.5918 23.7553 51.7886 21.6233 49.3165 21.6233C46.8444 21.6233 45.0413 23.7553 45.0413 26.2129C45.0413 28.6706 46.8444 30.7729 49.3165 30.7729C50.0436 30.8025 50.7125 30.5952 51.3233 30.2695ZM31.9537 33.5266C32.0409 34.1485 31.8373 34.4149 31.6628 34.4149C31.4592 34.4149 31.1975 34.1485 30.8776 33.6747C30.5577 33.1713 30.4413 32.6087 30.6158 32.3422C30.7031 32.1646 30.9357 32.0757 31.1975 32.1646C31.6919 32.3422 31.8955 33.1417 31.9537 33.5266ZM29.0744 34.8887C29.6852 35.4217 29.8887 36.0731 29.5688 36.5173C29.3943 36.7542 29.1035 36.9022 28.7254 36.9022C28.3764 36.9022 28.0274 36.7838 27.7656 36.5469C27.2131 36.0435 27.0386 35.2144 27.4166 34.7703C27.5621 34.5926 27.7947 34.5038 28.0856 34.5038C28.4055 34.4742 28.7545 34.6222 29.0744 34.8887ZM28.0274 40.0409C30.7031 40.0409 33.6114 40.9884 36.8397 43.8902C37.1596 44.1863 37.5959 43.831 37.305 43.4461C34.1349 39.3895 31.2266 38.6196 28.3182 37.9682C24.741 37.1687 22.9087 35.1256 21.629 32.8752C21.3673 32.4311 21.2509 32.5199 21.2509 33.0825C21.2218 33.7931 21.28 34.711 21.4254 35.629C21.28 35.629 21.1346 35.629 20.9892 35.629C15.8996 35.629 11.7406 31.4243 11.7406 26.2129C11.7406 21.0015 15.8705 16.7969 20.9892 16.7969C26.0788 16.7969 30.2377 21.0015 30.2377 26.2129C30.2377 26.5682 30.2087 26.9532 30.1796 27.3085C29.5107 27.19 28.1728 27.1604 27.2421 27.2493C26.8931 27.2789 26.9513 27.4565 27.2131 27.4862C30.2668 28.0487 32.3608 29.9734 32.8553 33.4674C32.8553 33.5562 32.9716 33.5859 33.0007 33.497C34.2513 31.3651 34.9784 28.8778 34.9784 26.1833C34.9493 18.3662 28.6963 12 20.9892 12C13.253 12 7 18.3662 7 26.2425C7 34.1188 13.253 40.485 20.9892 40.485C23.025 40.4554 25.0609 40.0409 28.0274 40.0409Z" fill="#FF8C00"/>
</svg>
