<svg width="100" height="56" viewBox="0 0 100 56" fill="none" xmlns="http://www.w3.org/2000/svg">
<rect opacity="0.7" width="100" height="56" rx="5" fill="#A5B4FC"/>
<path d="M44.8307 39.4847H38.4834L42.475 15.3867H48.8223L44.8307 39.4847Z" fill="white"/>
<path d="M33.1174 15.3867L27.0319 31.946L26.3121 28.4022L24.1527 17.513C24.1527 17.513 23.8909 15.3223 21.1426 15.3223H11.1309L11 15.7733C11 15.7733 14.0755 16.4176 17.6745 18.5439L23.2366 39.4846H29.8456L39.9883 15.3867H33.1174Z" fill="white"/>
<path d="M83.1765 39.4847H89.0003L83.8963 15.3867H78.7923C76.4366 15.3867 75.8476 17.1908 75.8476 17.1908L66.4248 39.4847H73.0339L74.3426 35.8764H82.4567L83.1765 39.4847ZM76.1748 30.9151L79.5121 21.8945L81.4097 30.9151H76.1748Z" fill="white"/>
<path d="M66.8827 21.1856L67.7988 16.0309C67.7988 16.0309 64.985 15 62.0404 15C58.8995 15 51.3743 16.3531 51.3743 22.9897C51.3743 29.2397 60.2082 29.3041 60.2082 32.5902C60.2082 35.8763 52.2904 35.2964 49.6729 33.2345L48.7568 38.6469C48.7568 38.6469 51.5706 40 55.9548 40C60.2736 40 66.8827 37.8093 66.8827 31.7526C66.8827 25.5026 57.9833 24.9227 57.9833 22.1521C57.9833 19.317 64.1998 19.7036 66.8827 21.1856Z" fill="white"/>
<path d="M26.3121 28.3377L24.1527 17.513C24.1527 17.513 23.8909 15.3223 21.1426 15.3223H11.1309L11 15.7733C11 15.7733 15.8423 16.7398 20.4228 20.4769C24.8725 23.9563 26.3121 28.3377 26.3121 28.3377Z" fill="#F7A823"/>
</svg>
