<svg width="100" height="56" viewBox="0 0 100 56" fill="none" xmlns="http://www.w3.org/2000/svg">
<rect opacity="0.7" width="100" height="56" rx="5" fill="#A5B4FC"/>
<path d="M41.7761 27.5C41.7761 20.6641 44.9881 14.6 49.9723 10.6583C46.2895 7.73654 41.6376 6 36.5981 6C24.6638 6 15 15.6199 15 27.5C15 39.3801 24.6638 49 36.5981 49C41.6653 49 46.3172 47.2635 50 44.3692C44.9881 40.4 41.7761 34.3083 41.7761 27.5Z" fill="#E30D17"/>
<path d="M41.7764 27.4999C41.7764 34.3358 44.9884 40.3999 49.9726 44.3415C54.9567 40.3999 58.1688 34.3358 58.1688 27.4999C58.1688 20.664 54.9567 14.5999 49.9726 10.6582C44.9884 14.5723 41.7764 20.664 41.7764 27.4999Z" fill="#EB610A"/>
<path d="M83.5051 39.104V38.4701H83.2559V38.3047H83.9481V38.4701H83.6712V39.104H83.5051ZM84.8342 39.104V38.5528L84.6404 39.0214H84.4465L84.2527 38.5528V39.104H84.0589V38.3047H84.3358L84.5296 38.8284L84.7234 38.3047H85.0003V39.104H84.8342Z" fill="#F69F00"/>
<path d="M63.3736 6C58.3063 6 53.6544 7.73654 49.9717 10.6308C54.9559 14.5724 58.1679 20.6365 58.1679 27.4724C58.1679 34.3083 54.9559 40.3724 49.9717 44.3141C53.6544 47.2083 58.3063 48.9449 63.3736 48.9449C75.3079 48.9449 84.9717 39.325 84.9717 27.4449C84.9717 15.5647 75.2802 6 63.3736 6Z" fill="#F69F00"/>
</svg>
